<svg width="206" height="44" viewBox="0 0 206 44" fill="none" xmlns="http://www.w3.org/2000/svg">
<path fill-rule="evenodd" clip-rule="evenodd" d="M6.56836 19.8268L6.57702 20.2686L12.6754 20.2859L16.0798 20.6237C16.0018 20.5198 15.9585 20.4851 15.8805 20.4158C15.8632 20.3985 15.8285 20.3639 15.8026 20.3465L15.5687 20.1646C15.9931 20.1386 18.0115 20.1733 18.436 20.3032C18.4706 20.3205 18.5745 20.3639 18.6092 20.3725C18.6352 20.3898 18.6612 20.4072 18.6872 20.4245C19.3022 20.7277 19.2416 20.719 19.8479 20.5198C19.7093 20.4505 19.6054 20.3985 19.4235 20.3292L18.7998 20.0693C18.999 19.8961 19.3888 19.7921 19.7873 19.8441C20.9134 20.0087 19.8566 20.2079 20.489 20.2166C20.9654 20.2253 20.489 20.2166 20.7228 20.0693C20.7488 20.052 20.7748 20.026 20.8008 20.0174C21.2599 19.7575 21.2079 20 21.719 19.7402L22.0309 19.5669C22.4813 19.8095 22.3341 19.8874 22.6459 19.8268C21.6844 17.9817 20.0039 16.4138 18.2281 15.357C17.6996 15.4003 17.9682 15.2703 17.6217 15.3137C17.1799 15.3656 17.8816 15.4003 17.1712 15.4176C16.7901 15.4263 16.92 15.2877 15.7939 15.3743C15.9412 15.4176 15.8978 15.4436 15.9758 15.5216C16.3396 15.8421 16.1837 15.7295 16.6342 15.8507C16.9633 15.946 16.6948 15.7988 16.8854 15.9374C14.1653 15.9027 15.4561 15.8247 14.7717 15.5735L13.6716 16.2492C13.481 16.3878 13.7669 16.3445 13.3684 16.4311C13.0219 16.4917 13.1432 16.6477 13.0825 16.1712H12.6667C12.4502 16.691 11.9651 16.6477 11.4453 16.8816C11.1248 16.7516 11.2374 16.6303 10.9689 16.5264C10.4751 16.7863 9.87742 16.9855 9.24506 16.9335C8.87258 16.9075 7.65117 17.2887 7.54722 17.358L7.0448 16.2319L6.74161 16.2146L6.56836 19.8268Z" fill="white"/>
<path fill-rule="evenodd" clip-rule="evenodd" d="M17.6819 25.1029C18.115 28.36 15.8541 30.7508 13.29 31.3052C11.6095 31.669 10.0329 31.1839 8.95877 30.4043C8.17048 29.8239 7.05303 28.7238 6.80181 27.2858C6.78449 27.3118 6.77583 27.3551 6.76716 27.3811C6.6199 27.9528 6.8971 29.4255 7.01838 29.9625C7.21761 30.8461 7.5208 31.5824 7.71137 32.3967C8.03188 32.8731 7.92794 33.133 8.41303 33.4708C8.67291 33.185 8.66425 33.5574 8.82017 33.852C8.70756 33.6354 8.65558 33.4535 8.80285 33.185C9.14934 33.3582 9.05406 33.3149 9.28794 33.6094C9.24463 32.8385 9.31393 33.0377 9.55648 32.6825L9.72107 32.3707C9.72973 32.3447 9.74705 32.3014 9.74705 32.2841C9.75572 32.2667 9.76438 32.2234 9.7817 32.1974C9.97228 32.5872 11.0551 33.7913 11.6788 34.0339L12.1552 33.3322L14.2949 33.2716C14.4335 32.7432 14.5461 32.7432 15.0225 32.5786C16.1573 32.1888 16.0014 31.3658 18.089 31.3399C18.2536 30.7162 18.6088 30.7768 19.1372 30.4909L20.9476 29.5554C21.0776 29.2522 20.3586 29.7286 21.2508 28.923L22.0304 28.4119C22.273 28.2907 21.8659 28.4206 22.273 28.2907C22.1777 27.7796 21.9958 27.5111 21.8139 27.0866C21.8399 27.0693 21.8918 27.0173 21.9005 27.0433C21.9611 27.1646 22.195 26.7054 22.7494 26.5149L22.8707 26.7488C22.94 26.948 22.914 26.8094 22.9747 27.0866C22.9747 27.1126 22.9833 27.4158 22.9833 27.4418L23.2778 25.7786L23.581 25.6486C22.9747 24.5485 20.4192 21.9758 19.397 21.9065C18.5481 21.8978 19.0679 22.1663 18.4095 22.2703L17.344 22.0537C17.396 22.2616 17.396 22.1317 17.474 22.2703C17.7512 22.7294 17.6732 22.7987 17.9244 23.0932C18.3835 22.9719 17.7339 22.8333 18.6607 22.7294C18.5568 24.5658 19.0246 24.0894 18.9726 24.817C18.8946 26.0384 19.0072 25.1982 18.5828 25.536C18.4269 25.1116 18.4615 25.0163 18.4615 24.4705H18.3402C18.3402 24.6005 18.3662 24.9556 18.3576 25.0509C18.3229 25.5274 18.2796 25.562 18.1063 25.7786L17.6819 25.1029Z" fill="white"/>
<path fill-rule="evenodd" clip-rule="evenodd" d="M0.392023 27.0253C0.149474 28.0648 0.504635 27.2159 0.55661 27.9262C0.573935 28.2034 0.608585 28.6192 0.418011 28.8098C0.643235 29.7627 0.963746 30.5943 1.39687 31.4259C1.65674 31.9283 2.41038 33.193 2.76554 33.4269C3.29395 33.089 3.06007 33.3489 3.41523 33.3836L3.75306 33.3143C4.0216 33.2536 4.00427 33.2536 4.30746 33.2536C4.61065 33.7127 4.0909 33.2883 4.41141 33.4096C4.42007 33.4182 4.4374 33.4182 4.44606 33.4182L5.45957 33.2363C5.46823 32.7945 5.44225 32.9418 5.57218 32.6299C6.02263 32.6213 6.14391 32.5433 6.4211 32.3961C6.73295 32.2401 6.95818 32.1795 7.27869 32.0409C7.45194 32.1708 7.48659 32.2228 7.71181 32.3961C7.52124 31.5818 7.21805 30.8455 7.01882 29.9619C6.89754 29.4248 6.62034 27.9522 6.7676 27.3805C6.77627 27.3545 6.78493 27.3112 6.80225 27.2852L6.629 26.6182C6.34314 26.4016 6.48174 26.5056 6.39512 26.1331C6.38645 26.1158 6.3518 25.8819 6.34314 25.8126C6.33448 25.7866 6.32582 25.7693 6.31715 25.7173C6.31715 25.674 6.29983 25.6567 6.29117 25.6307L6.09193 26.3323C5.88403 26.0638 5.92734 24.3227 5.90136 23.8202C5.55486 23.9935 6.21321 23.4997 5.77142 24.0108L5.5462 24.1494C5.53753 24.1581 5.50288 24.1667 5.49422 24.1667C4.51536 24.6518 4.77523 25.059 3.70109 25.7693C3.07739 26.1851 2.47102 26.6442 1.69139 26.6442L1.68273 25.6653C1.36222 25.8646 1.48349 26.7915 1.47483 27.5884C0.599923 27.5624 0.851134 27.5884 0.825147 26.6269C0.669222 26.7568 0.565273 26.8781 0.392023 27.0253Z" fill="white"/>
<path fill-rule="evenodd" clip-rule="evenodd" d="M8.41357 33.4726C8.47421 33.897 8.72542 34.1742 9.00262 34.5294C9.24517 34.8326 9.4011 35.1704 9.86021 35.361C10.4319 34.9279 10.4926 35.4996 10.6745 34.4081L11.3502 34.2782C11.584 34.2349 12.1125 34.8066 12.6842 35.1271C14.1828 35.95 13.9922 35.4736 14.6592 35.5429C15.5515 35.6295 14.5726 35.6122 15.2309 35.8547C15.2569 35.8461 15.3002 35.7941 15.3089 35.8201L15.9239 35.4996C15.9066 35.0665 15.3176 35.2484 16.0799 34.4601C16.3224 34.2175 16.6343 33.897 16.9028 34.0356C17.8124 34.5121 16.383 33.949 17.154 34.2262C17.5352 33.871 17.8124 33.9837 17.925 33.3253C18.7219 33.2647 18.3408 33.1174 18.9038 33.204C19.1464 33.2474 18.6526 33.3513 19.2936 33.2474C19.5882 32.9961 19.5708 32.8402 19.874 32.537C20.1426 32.2685 20.3505 32.1992 20.6017 31.974L20.7749 32.6583L20.9049 31.8873C21.5892 31.7054 21.3813 31.6188 21.6672 31.4456C21.901 31.307 21.7711 31.2463 22.0916 31.3849C22.2302 31.4369 22.2475 31.5755 22.2735 31.7228C22.3082 31.6968 22.3428 31.6015 22.3688 31.6275C22.4988 31.7661 22.5074 31.4975 22.5767 31.4629C22.9232 31.2637 22.4641 31.4109 22.9232 31.333C23.4949 30.8652 24.084 28.2318 24.2399 27.0884C24.2919 26.404 23.9021 26.0749 23.5816 25.6504L23.2784 25.7803L22.9839 27.4435C22.9839 27.4175 22.9752 27.1143 22.9752 27.0884C22.9146 26.8112 22.9405 26.9498 22.8712 26.7505L22.75 26.5166C22.1956 26.7072 21.9617 27.1663 21.901 27.045C21.8924 27.0191 21.8404 27.071 21.8144 27.0884C21.9963 27.5128 22.1782 27.7814 22.2735 28.2924C21.8664 28.4224 22.2735 28.2924 22.031 28.4137L21.2514 28.9248C20.3591 29.7304 21.0781 29.254 20.9482 29.5572L19.1377 30.4927C18.6093 30.7786 18.2541 30.7179 18.0896 31.3416C16.0019 31.3676 16.1578 32.1905 15.023 32.5803C14.5466 32.7449 14.434 32.7449 14.2954 33.2733L12.1558 33.334L11.6793 34.0356C11.0556 33.7931 9.97282 32.589 9.78225 32.1992C9.76492 32.2252 9.75626 32.2685 9.7476 32.2858C9.7476 32.3031 9.73027 32.3465 9.72161 32.3724L9.55702 32.6843C9.31447 33.0395 9.24517 32.8402 9.28848 33.6112C9.0546 33.3167 9.14988 33.36 8.80339 33.1867C8.65612 33.4552 8.7081 33.6372 8.82071 33.8537C8.66479 33.5592 8.67345 33.1867 8.41357 33.4726Z" fill="white"/>
<path fill-rule="evenodd" clip-rule="evenodd" d="M0.391936 27.0274C0.565186 26.8801 0.669135 26.7588 0.82506 26.6289C0.851047 27.5904 0.599836 27.5645 1.47475 27.5904C1.48341 26.7935 1.36213 25.8666 1.68264 25.6674L1.69131 26.6462C2.47093 26.6462 3.0773 26.1871 3.701 25.7713C4.77515 25.061 4.51527 24.6539 5.49413 24.1688C5.5028 24.1688 5.53745 24.1601 5.54611 24.1515L5.77133 24.0129C6.21312 23.5018 5.55477 23.9955 5.90127 23.8223C5.92726 24.3247 5.88394 26.0658 6.09184 26.3344L6.29108 25.6327L6.32573 20.5479C5.73668 20.1754 4.00419 20.4266 3.23323 20.4526H0.851047C0.781747 20.4613 0.582511 20.4872 0.521873 20.4959C0.192699 20.5652 0.374611 20.5392 0.279324 20.5825C-0.00653753 22.1418 0.0281123 25.5115 0.391936 27.0274Z" fill="white"/>
<path fill-rule="evenodd" clip-rule="evenodd" d="M9.86084 35.3612C10.0428 35.7943 10.7444 36.3833 11.1949 36.7385C11.6366 37.085 12.347 37.4661 12.6848 37.9512C14.9977 37.9772 17.5878 36.8771 19.0171 35.8549C20.2645 34.954 22.4647 32.8577 22.9239 31.3331C22.4647 31.4111 22.9239 31.2638 22.5774 31.4631C22.5081 31.4977 22.4994 31.7662 22.3695 31.6276C22.3435 31.6017 22.3088 31.6969 22.2742 31.7229C22.2482 31.5757 22.2309 31.4371 22.0923 31.3851C21.7717 31.2465 21.9017 31.3071 21.6678 31.4457C21.3819 31.619 21.5898 31.7056 20.9055 31.8875L20.7756 32.6585L20.6023 31.9741C20.3511 32.1994 20.1432 32.2687 19.8747 32.5372C19.5715 32.8404 19.5888 32.9963 19.2943 33.2475C18.6533 33.3515 19.147 33.2475 18.9045 33.2042C18.3414 33.1176 18.7226 33.2648 17.9256 33.3255C17.813 33.9838 17.5358 33.8712 17.1546 34.2264C16.3837 33.9492 17.813 34.5122 16.9034 34.0358C16.6349 33.8972 16.323 34.2177 16.0805 34.4603C15.3182 35.2485 15.9072 35.0666 15.9246 35.4998L15.3095 35.8203C15.3009 35.7943 15.2576 35.8463 15.2316 35.8549C14.5732 35.6124 15.5521 35.6297 14.6599 35.5431C13.9928 35.4738 14.1834 35.9502 12.6848 35.1273C12.1131 34.8068 11.5847 34.235 11.3508 34.2784L10.6751 34.4083C10.4932 35.4998 10.4326 34.928 9.86084 35.3612Z" fill="white"/>
<path fill-rule="evenodd" clip-rule="evenodd" d="M6.56836 19.8282L6.74161 16.216L7.0448 16.2333L7.54722 17.3594C7.65117 17.2901 8.87258 16.909 9.24506 16.935C9.87742 16.9869 10.4751 16.7877 10.9689 16.5278C11.2374 16.6318 11.1248 16.7531 11.4453 16.883C11.9651 16.6491 12.4502 16.6924 12.6667 16.1727H13.0825C13.1432 16.6491 13.0219 16.4932 13.3684 16.4325C13.7669 16.3459 13.481 16.3892 13.6716 16.2506L14.7717 15.575C15.4561 15.8262 14.1653 15.9041 16.8854 15.9388C16.6948 15.8002 16.9633 15.9474 16.6342 15.8522C16.1837 15.7309 16.3396 15.8435 15.9758 15.523C15.8978 15.445 15.9412 15.419 15.7939 15.3757C16.92 15.2891 16.7901 15.4277 17.1712 15.419C17.8816 15.4017 17.1799 15.3671 17.6217 15.3151C17.9682 15.2718 17.6996 15.4017 18.2281 15.3584C16.7728 14.5355 15.1355 13.9378 13.2298 13.7732C11.6272 13.6346 8.17092 13.6172 6.58568 13.7558L6.56836 19.8282Z" fill="white"/>
<path fill-rule="evenodd" clip-rule="evenodd" d="M0.0717773 13.7561C0.0717773 13.4962 0.0804398 13.3057 0.0977648 13.0458L0.262352 12.2922C0.929362 12.3268 0.582863 12.0323 0.7128 12.6646C0.81675 11.7204 0.868725 12.8465 1.1979 11.9716C1.1979 11.9716 1.52707 10.7243 1.60504 11.0361C1.6137 11.0448 1.88223 11.192 2.31536 11.0707C2.61854 10.9841 2.91307 10.7849 3.12097 10.6723C3.71002 10.3258 4.46365 10.4037 5.38187 10.3951C5.79767 10.2392 5.45117 10.4817 5.65907 9.90132C5.66774 9.87533 5.76302 9.64145 5.76302 9.63278C5.91028 9.37291 5.84965 9.49419 5.98825 9.35559C6.49933 10.9928 6.56863 11.859 6.56863 13.7648L6.58596 13.7561L6.56863 7.02539L0.0804398 7.03405L0.0717773 13.7561Z" fill="white"/>
<path fill-rule="evenodd" clip-rule="evenodd" d="M2.76611 33.429C4.23873 35.6032 8.30143 38.3319 12.6846 37.9508C12.3468 37.4657 11.6365 37.0845 11.1947 36.738C10.7443 36.3829 10.0426 35.7938 9.86068 35.3607C9.40157 35.1701 9.24564 34.8323 9.00309 34.5291C8.72589 34.1739 8.47468 33.8967 8.41405 33.4723C7.92895 33.1344 8.0329 32.8746 7.71239 32.3981C7.48716 32.2249 7.45251 32.1729 7.27926 32.043C6.95875 32.1816 6.73353 32.2422 6.42168 32.3981C6.14448 32.5454 6.0232 32.6234 5.57275 32.632C5.44282 32.9439 5.46881 32.7966 5.46014 33.2384L4.44663 33.4203C4.43797 33.4203 4.42065 33.4203 4.41198 33.4116C4.09147 33.2904 4.61122 33.7148 4.30803 33.2557C4.00485 33.2557 4.02217 33.2557 3.75364 33.3163L3.4158 33.3856C3.06064 33.351 3.29452 33.0911 2.76611 33.429Z" fill="white"/>
<path fill-rule="evenodd" clip-rule="evenodd" d="M16.0804 20.6252C16.8167 20.8417 18.9044 21.2402 19.3981 21.9072C20.4203 21.9765 22.9757 24.5493 23.5821 25.6494C23.9026 26.0739 24.2924 26.403 24.2405 27.0874C24.5003 24.7745 23.8073 21.4308 22.6466 19.8282C22.3347 19.8889 22.482 19.8109 22.0315 19.5684L21.7197 19.7416C21.2086 20.0015 21.2606 19.7589 20.8015 20.0188C20.7755 20.0275 20.7495 20.0535 20.7235 20.0708C20.4896 20.218 20.9661 20.2267 20.4896 20.218C19.8573 20.2094 20.9141 20.0101 19.788 19.8456C19.3895 19.7936 18.9997 19.8975 18.8004 20.0708L19.4241 20.3307C19.606 20.4 19.71 20.4519 19.8486 20.5212C19.2422 20.7205 19.3029 20.7291 18.6878 20.4259C18.6618 20.4086 18.6359 20.3913 18.6099 20.374C18.5752 20.3653 18.4713 20.322 18.4366 20.3047C18.0122 20.1747 15.9938 20.1401 15.5693 20.1661L15.8032 20.348C15.8292 20.3653 15.8639 20.4 15.8812 20.4173C15.9591 20.4866 16.0025 20.5212 16.0804 20.6252Z" fill="white"/>
<path fill-rule="evenodd" clip-rule="evenodd" d="M0.0717773 13.756L6.56863 13.7647C6.56863 11.8589 6.49933 10.9927 5.98825 9.35547C5.84965 9.49407 5.91028 9.37279 5.76302 9.63267C5.76302 9.64133 5.66774 9.87522 5.65907 9.9012C5.45117 10.4816 5.79767 10.239 5.38187 10.395C4.46365 10.4036 3.71002 10.3257 3.12097 10.6722C2.91307 10.7848 2.61854 10.984 2.31536 11.0706C1.88223 11.1919 1.6137 11.0446 1.60504 11.036C1.52707 10.7241 1.1979 11.9715 1.1979 11.9715C0.868725 12.8464 0.81675 11.7203 0.7128 12.6645C0.582863 12.0322 0.929362 12.3267 0.262352 12.292L0.0977648 13.0457C0.0804398 13.3055 0.0717773 13.4961 0.0717773 13.756Z" fill="white"/>
<path fill-rule="evenodd" clip-rule="evenodd" d="M17.6822 25.1034L18.1067 25.7791C18.2799 25.5625 18.3232 25.5279 18.3579 25.0515C18.3665 24.9562 18.3406 24.601 18.3406 24.4711H18.4618C18.4618 25.0168 18.4272 25.1121 18.5831 25.5365C19.0076 25.1987 18.8949 26.039 18.9729 24.8176C19.0249 24.0899 18.5571 24.5664 18.6611 22.7299C17.7342 22.8339 18.3839 22.9725 17.9248 23.0937C17.6735 22.7992 17.7515 22.7299 17.4743 22.2708C17.3963 22.1322 17.3963 22.2621 17.3444 22.0542L18.4099 22.2708C19.0682 22.1669 18.5485 21.8983 19.3974 21.907C18.9036 21.24 16.816 20.8415 16.0796 20.6249L12.6753 20.2871C14.0526 20.3997 15.2307 21.1014 15.9844 21.829C16.8766 22.6693 17.3444 23.5528 17.6822 25.1034Z" fill="white"/>
<path fill-rule="evenodd" clip-rule="evenodd" d="M0.417503 28.8115C0.608078 28.621 0.573428 28.2052 0.556103 27.928C0.504128 27.2177 0.148967 28.0666 0.391516 27.0271C0.0276921 25.5112 -0.00695783 22.1415 0.278904 20.5822C0.374191 20.5389 0.192279 20.5649 0.521453 20.4956C0.58209 20.4869 0.781327 20.461 0.850627 20.4523H3.23281C4.00377 20.4263 5.73626 20.1751 6.32531 20.5476L6.29066 25.6324C6.29932 25.6584 6.31665 25.6757 6.31665 25.7191C6.32531 25.771 6.33397 25.7884 6.34263 25.8143C6.3513 25.8836 6.38595 26.1175 6.39461 26.1349C6.48123 26.5073 6.34263 26.4034 6.6285 26.6199L6.57652 20.2704L0.0190296 20.2617C0.0969919 22.9731 -0.240845 26.3081 0.417503 28.8115Z" fill="white"/>
<path d="M33.718 33V12.52H41.7678C43.0668 12.52 44.1571 12.7855 45.0389 13.3164C45.9207 13.8474 46.5844 14.5348 47.03 15.3787C47.4756 16.213 47.6985 17.0948 47.6985 18.024C47.6985 19.1523 47.4188 20.1194 46.8593 20.9253C46.3094 21.7313 45.5651 22.2812 44.6265 22.5751L44.598 21.8782C45.9065 22.2006 46.9115 22.8311 47.6131 23.7698C48.3148 24.699 48.6656 25.7846 48.6656 27.0267C48.6656 28.2308 48.4238 29.2785 47.9402 30.1698C47.4662 31.061 46.7693 31.7579 45.8496 32.2604C44.9393 32.7535 43.8348 33 42.5358 33H33.718ZM36.7331 30.1698H42.0807C42.7539 30.1698 43.3559 30.0418 43.8869 29.7858C44.4273 29.5298 44.8493 29.1647 45.1527 28.6907C45.4656 28.2071 45.622 27.6335 45.622 26.9698C45.622 26.3535 45.4845 25.7988 45.2096 25.3058C44.9441 24.8033 44.5553 24.4098 44.0433 24.1253C43.5408 23.8314 42.9482 23.6844 42.2656 23.6844H36.7331V30.1698ZM36.7331 20.8827H41.7251C42.275 20.8827 42.7681 20.7736 43.2042 20.5556C43.6499 20.328 44.0007 20.0056 44.2567 19.5884C44.5222 19.1618 44.6549 18.6498 44.6549 18.0524C44.6549 17.256 44.3894 16.6018 43.8585 16.0898C43.3275 15.5778 42.6164 15.3218 41.7251 15.3218H36.7331V20.8827ZM49.7891 33V12.0933H52.7616V33H49.7891ZM60.8298 33.4124C59.7679 33.4124 58.8766 33.2418 58.156 32.9004C57.4354 32.5591 56.8476 32.1135 56.3925 31.5636C55.9468 31.0041 55.6055 30.3973 55.3685 29.7431C55.1314 29.0889 54.9702 28.4489 54.8849 27.8231C54.7996 27.1973 54.7569 26.6474 54.7569 26.1733V17.64H57.772V25.192C57.772 25.7893 57.8194 26.4056 57.9142 27.0409C58.0185 27.6667 58.2082 28.2498 58.4831 28.7902C58.7676 29.3307 59.161 29.7668 59.6636 30.0987C60.1756 30.4305 60.8393 30.5964 61.6547 30.5964C62.1856 30.5964 62.6882 30.5111 63.1622 30.3404C63.6363 30.1603 64.0488 29.8759 64.3996 29.4871C64.7599 29.0984 65.0396 28.5864 65.2387 27.9511C65.4473 27.3159 65.5516 26.5431 65.5516 25.6329L67.4005 26.3298C67.4005 27.7236 67.1397 28.9561 66.6182 30.0276C66.0968 31.0895 65.3477 31.9191 64.3711 32.5164C63.3945 33.1138 62.2141 33.4124 60.8298 33.4124ZM65.9071 33V28.5627H65.5516V17.64H68.5525V33H65.9071ZM76.3387 33.4124C75.2767 33.4124 74.3855 33.2418 73.6649 32.9004C72.9443 32.5591 72.3565 32.1135 71.9013 31.5636C71.4557 31.0041 71.1144 30.3973 70.8773 29.7431C70.6403 29.0889 70.4791 28.4489 70.3938 27.8231C70.3085 27.1973 70.2658 26.6474 70.2658 26.1733V17.64H73.2809V25.192C73.2809 25.7893 73.3283 26.4056 73.4231 27.0409C73.5274 27.6667 73.717 28.2498 73.992 28.7902C74.2765 29.3307 74.6699 29.7668 75.1725 30.0987C75.6845 30.4305 76.3482 30.5964 77.1636 30.5964C77.6945 30.5964 78.197 30.5111 78.6711 30.3404C79.1452 30.1603 79.5576 29.8759 79.9085 29.4871C80.2687 29.0984 80.5485 28.5864 80.7476 27.9511C80.9562 27.3159 81.0605 26.5431 81.0605 25.6329L82.9093 26.3298C82.9093 27.7236 82.6486 28.9561 82.1271 30.0276C81.6056 31.0895 80.8566 31.9191 79.88 32.5164C78.9034 33.1138 77.723 33.4124 76.3387 33.4124ZM81.416 33V28.5627H81.0605V17.64H84.0613V33H81.416ZM104.463 33L104.477 23.4284C104.477 22.3191 104.192 21.4563 103.624 20.84C103.055 20.2142 102.306 19.9013 101.376 19.9013C100.808 19.9013 100.286 20.0341 99.812 20.2996C99.3474 20.5556 98.9682 20.9443 98.6742 21.4658C98.3898 21.9778 98.2476 22.6225 98.2476 23.4L96.8111 22.6747C96.7922 21.5938 97.0197 20.6456 97.4938 19.8302C97.9773 19.0148 98.6316 18.3843 99.4565 17.9387C100.281 17.4836 101.206 17.256 102.23 17.256C103.889 17.256 105.174 17.7538 106.084 18.7493C106.994 19.7449 107.449 21.0676 107.449 22.7173L107.435 33H104.463ZM86.0449 33V17.64H88.6902V22.0773H89.0316V33H86.0449ZM95.2609 33L95.2751 23.4853C95.2751 22.3665 94.9907 21.4895 94.4218 20.8542C93.8624 20.219 93.1086 19.9013 92.1605 19.9013C91.2218 19.9013 90.4633 20.2237 89.8849 20.8684C89.316 21.5132 89.0316 22.357 89.0316 23.4L87.6093 22.4898C87.6093 21.4847 87.8511 20.5887 88.3347 19.8018C88.8182 19.0148 89.4725 18.3938 90.2973 17.9387C91.1222 17.4836 92.0562 17.256 93.0991 17.256C94.1895 17.256 95.1187 17.4883 95.8867 17.9529C96.6547 18.408 97.2378 19.048 97.636 19.8729C98.0437 20.6978 98.2476 21.6554 98.2476 22.7458L98.2333 33H95.2609Z" fill="white"/>
<path d="M112.714 33.1113V12.9158H125.4V15.3051H113.937L115.16 14.0536V23.3264L113.937 22.0749H124.888V24.4073H113.937L115.16 23.1558V33.1113H112.714ZM126.604 33.1113V18.0358H128.993V33.1113H126.604ZM126.547 15.6749V12.8873H129.05V15.6749H126.547ZM131.835 33.1113V18.0358H134.025L134.11 21.8758L133.826 21.6198C134.016 20.7285 134.348 19.9984 134.822 19.4296C135.296 18.8417 135.865 18.4056 136.528 18.1211C137.211 17.8367 137.941 17.6944 138.718 17.6944C139.875 17.6944 140.823 17.9504 141.563 18.4624C142.321 18.9744 142.881 19.6666 143.241 20.5389C143.62 21.3922 143.81 22.3498 143.81 23.4118V33.1113H141.421V24.0944C141.421 23.1653 141.307 22.3878 141.079 21.762C140.871 21.1173 140.529 20.6337 140.055 20.3113C139.581 19.97 138.965 19.7993 138.206 19.7993C137.05 19.7993 136.092 20.1691 135.334 20.9087C134.594 21.6293 134.224 22.6912 134.224 24.0944V33.1113H131.835ZM150.161 33.4527C148.606 33.4527 147.364 33.0924 146.435 32.3718C145.525 31.6512 145.07 30.6461 145.07 29.3567C145.07 28.0672 145.449 27.0527 146.208 26.3131C146.966 25.5736 148.17 25.0521 149.82 24.7487L155.168 23.7531C155.168 22.4826 154.864 21.5344 154.257 20.9087C153.67 20.2829 152.778 19.97 151.584 19.97C150.541 19.97 149.716 20.207 149.109 20.6811C148.502 21.1362 148.085 21.7999 147.857 22.6722L145.326 22.4731C145.61 21.0509 146.293 19.9036 147.374 19.0313C148.474 18.1401 149.877 17.6944 151.584 17.6944C153.518 17.6944 154.997 18.2444 156.021 19.3442C157.045 20.4251 157.557 21.9232 157.557 23.8384V30.0678C157.557 30.4091 157.614 30.6556 157.728 30.8073C157.86 30.9401 158.069 31.0064 158.353 31.0064H158.951V33.1113C158.875 33.1303 158.752 33.1398 158.581 33.1398C158.41 33.1587 158.23 33.1682 158.04 33.1682C157.358 33.1682 156.798 33.0639 156.362 32.8553C155.945 32.6278 155.642 32.2864 155.452 31.8313C155.262 31.3573 155.168 30.741 155.168 29.9824L155.452 30.0393C155.319 30.6841 154.997 31.2719 154.485 31.8029C153.973 32.3149 153.338 32.7226 152.579 33.026C151.821 33.3104 151.015 33.4527 150.161 33.4527ZM150.389 31.3478C151.394 31.3478 152.247 31.1581 152.949 30.7789C153.67 30.3807 154.219 29.8497 154.599 29.186C154.978 28.5033 155.168 27.7448 155.168 26.9104V25.8296L150.275 26.7398C149.251 26.9294 148.54 27.2233 148.142 27.6216C147.763 28.0008 147.573 28.5033 147.573 29.1291C147.573 29.8307 147.819 30.3807 148.312 30.7789C148.824 31.1581 149.517 31.3478 150.389 31.3478ZM159.658 33.1113V18.0358H161.848L161.934 21.8758L161.649 21.6198C161.839 20.7285 162.171 19.9984 162.645 19.4296C163.119 18.8417 163.688 18.4056 164.352 18.1211C165.034 17.8367 165.764 17.6944 166.542 17.6944C167.699 17.6944 168.647 17.9504 169.386 18.4624C170.145 18.9744 170.704 19.6666 171.064 20.5389C171.444 21.3922 171.633 22.3498 171.633 23.4118V33.1113H169.244V24.0944C169.244 23.1653 169.13 22.3878 168.903 21.762C168.694 21.1173 168.353 20.6337 167.879 20.3113C167.405 19.97 166.788 19.7993 166.03 19.7993C164.873 19.7993 163.915 20.1691 163.157 20.9087C162.417 21.6293 162.048 22.6912 162.048 24.0944V33.1113H159.658ZM179.75 33.4527C178.346 33.4527 177.123 33.1303 176.08 32.4856C175.056 31.8408 174.26 30.9306 173.691 29.7549C173.122 28.5602 172.838 27.1664 172.838 25.5736C172.838 23.9807 173.122 22.5964 173.691 21.4207C174.26 20.245 175.056 19.3347 176.08 18.69C177.123 18.0263 178.346 17.6944 179.75 17.6944C180.906 17.6944 181.93 17.903 182.822 18.3202C183.732 18.7184 184.471 19.3063 185.04 20.0838C185.609 20.8613 185.979 21.8094 186.15 22.9282L183.646 23.0989C183.476 22.0938 183.04 21.3258 182.338 20.7949C181.636 20.245 180.774 19.97 179.75 19.97C178.365 19.97 177.284 20.4725 176.507 21.4776C175.729 22.4636 175.341 23.829 175.341 25.5736C175.341 27.3181 175.729 28.693 176.507 29.698C177.284 30.6841 178.365 31.1771 179.75 31.1771C180.774 31.1771 181.636 30.8927 182.338 30.3238C183.04 29.7549 183.476 28.9016 183.646 27.7638L186.15 27.9344C185.979 29.0533 185.609 30.0298 185.04 30.8642C184.471 31.6796 183.732 32.3149 182.822 32.77C181.93 33.2251 180.906 33.4527 179.75 33.4527ZM193.008 33.4527C191.586 33.4527 190.354 33.1303 189.311 32.4856C188.287 31.8408 187.49 30.9306 186.921 29.7549C186.371 28.5602 186.096 27.1664 186.096 25.5736C186.096 23.9807 186.371 22.5964 186.921 21.4207C187.49 20.245 188.277 19.3347 189.282 18.69C190.306 18.0263 191.51 17.6944 192.895 17.6944C194.203 17.6944 195.36 18.0073 196.365 18.6331C197.37 19.2399 198.147 20.1312 198.697 21.3069C199.266 22.4826 199.551 23.9143 199.551 25.602V26.3131H188.6C188.694 27.925 189.121 29.1386 189.88 29.954C190.657 30.7694 191.7 31.1771 193.008 31.1771C193.995 31.1771 194.8 30.9496 195.426 30.4944C196.071 30.0204 196.517 29.4041 196.763 28.6456L199.323 28.8447C198.925 30.191 198.166 31.3004 197.048 32.1727C195.948 33.026 194.601 33.4527 193.008 33.4527ZM188.6 24.2082H196.934C196.82 22.7481 196.393 21.6767 195.654 20.994C194.933 20.3113 194.014 19.97 192.895 19.97C191.738 19.97 190.78 20.3303 190.022 21.0509C189.282 21.7525 188.808 22.805 188.6 24.2082Z" fill="white"/>
</svg>
