<svg width="235" height="87" viewBox="0 0 235 87" fill="none" xmlns="http://www.w3.org/2000/svg">
<path fill-rule="evenodd" clip-rule="evenodd" d="M13.3643 39.0493L13.3819 39.9482L25.7909 39.9835L32.7181 40.6709C32.5595 40.4594 32.4713 40.3889 32.3127 40.2478C32.2774 40.2126 32.2069 40.1421 32.1541 40.1068L31.6781 39.7367C32.5418 39.6838 36.6488 39.7543 37.5125 40.0187C37.583 40.054 37.7945 40.1421 37.865 40.1597C37.9179 40.195 37.9708 40.2302 38.0237 40.2655C39.2751 40.8824 39.1518 40.8648 40.3856 40.4594C40.1036 40.3184 39.8921 40.2126 39.5219 40.0716L38.2528 39.5428C38.6582 39.1903 39.4514 38.9787 40.2622 39.0845C42.5537 39.4194 40.4032 39.8248 41.69 39.8424C42.6594 39.8601 41.69 39.8424 42.1659 39.5428C42.2188 39.5075 42.2716 39.4547 42.3245 39.437C43.2587 38.9082 43.153 39.4018 44.1929 38.873L44.8275 38.5205C45.7441 39.014 45.4444 39.1726 46.079 39.0493C44.1224 35.2948 40.7029 32.1045 37.0895 29.954C36.0143 30.0422 36.5607 29.7778 35.8556 29.8659C34.9567 29.9717 36.3844 30.0422 34.939 30.0774C34.1635 30.0951 34.4279 29.813 32.1364 29.9893C32.4361 30.0774 32.348 30.1303 32.5066 30.2889C33.2469 30.9411 32.9296 30.712 33.8462 30.9587C34.516 31.1526 33.9696 30.853 34.3574 31.135C28.8227 31.0645 31.449 30.9059 30.0565 30.3947L27.818 31.7696C27.4302 32.0516 28.0118 31.9634 27.201 32.1397C26.496 32.2631 26.7427 32.5804 26.6194 31.6109H25.7733C25.3326 32.6685 24.3455 32.5804 23.288 33.0563C22.6358 32.7919 22.8649 32.5451 22.3185 32.3336C21.3138 32.8624 20.0976 33.2678 18.8108 33.162C18.0529 33.1092 15.5676 33.8847 15.356 34.0257L14.3337 31.7343L13.7168 31.6991L13.3643 39.0493Z" fill="#3B4721"/>
<path fill-rule="evenodd" clip-rule="evenodd" d="M35.9785 49.7868C36.8598 56.4143 32.2593 61.2792 27.0419 62.4073C23.6224 63.1476 20.4144 62.1605 18.2287 60.5741C16.6247 59.3932 14.3509 57.1546 13.8397 54.2286C13.8044 54.2815 13.7868 54.3696 13.7692 54.4225C13.4695 55.5859 14.0336 58.5823 14.2804 59.6752C14.6858 61.4731 15.3027 62.9713 15.6905 64.6282C16.3427 65.5976 16.1311 66.1264 17.1182 66.8139C17.647 66.2322 17.6294 66.9901 17.9467 67.5894C17.7175 67.1488 17.6118 66.7786 17.9114 66.2322C18.6165 66.5847 18.4226 66.4966 18.8985 67.0959C18.8104 65.5271 18.9514 65.9325 19.4449 65.2099L19.7798 64.5753C19.7974 64.5224 19.8327 64.4343 19.8327 64.399C19.8503 64.3638 19.8679 64.2757 19.9032 64.2228C20.291 65.016 22.4943 67.466 23.7634 67.9596L24.7328 66.5318L29.0866 66.4085C29.3686 65.3332 29.5977 65.3332 30.5672 64.9983C32.8763 64.2052 32.559 62.5306 36.807 62.4778C37.1419 61.2087 37.8645 61.3321 38.9398 60.7504L42.6237 58.8467C42.8881 58.2298 41.4251 59.1993 43.2406 57.56L44.827 56.5201C45.3205 56.2733 44.4921 56.5377 45.3205 56.2733C45.1266 55.2333 44.7565 54.6869 44.3863 53.8232C44.4392 53.788 44.545 53.6822 44.5626 53.7351C44.686 53.9819 45.1619 53.0477 46.29 52.6599L46.5368 53.1358C46.6778 53.5412 46.6249 53.2592 46.7483 53.8232C46.7483 53.8761 46.7659 54.493 46.7659 54.5459L47.3652 51.1616L47.9821 50.8972C46.7483 48.6587 41.5485 43.4237 39.4686 43.2826C37.7412 43.265 38.7988 43.8114 37.4591 44.023L35.2911 43.5823C35.3968 44.0053 35.3968 43.7409 35.5555 44.023C36.1195 44.9571 35.9609 45.0982 36.4721 45.6975C37.4063 45.4507 36.0843 45.1687 37.9703 44.9571C37.7588 48.6939 38.7106 47.7245 38.6049 49.2051C38.4462 51.6904 38.6754 49.9807 37.8117 50.6681C37.4944 49.8044 37.5649 49.6105 37.5649 48.5001H37.3181C37.3181 48.7644 37.371 49.4871 37.3534 49.681C37.2829 50.6505 37.1947 50.721 36.8422 51.1616L35.9785 49.7868Z" fill="#3B4721"/>
<path fill-rule="evenodd" clip-rule="evenodd" d="M0.796733 53.6981C0.303192 55.8133 1.02588 54.0859 1.13164 55.5313C1.16689 56.0953 1.23739 56.9414 0.849612 57.3291C1.3079 59.268 1.96008 60.9602 2.8414 62.6523C3.37019 63.6746 4.9037 66.2481 5.62638 66.724C6.70159 66.0366 6.22568 66.5654 6.94836 66.6359L7.6358 66.4949C8.18222 66.3715 8.14696 66.3715 8.76389 66.3715C9.38081 67.3057 8.32323 66.442 8.97541 66.6888C8.99303 66.7064 9.02829 66.7064 9.04591 66.7064L11.1082 66.3362C11.1258 65.4373 11.073 65.7369 11.3374 65.1024C12.2539 65.0847 12.5007 64.9261 13.0647 64.6265C13.6993 64.3092 14.1576 64.1858 14.8098 63.9038C15.1623 64.1682 15.2328 64.2739 15.6911 64.6265C15.3033 62.9696 14.6864 61.4713 14.281 59.6735C14.0342 58.5806 13.4702 55.5841 13.7698 54.4208C13.7874 54.3679 13.8051 54.2798 13.8403 54.2269L13.4878 52.8697C12.9061 52.429 13.1881 52.6405 13.0119 51.8826C12.9942 51.8473 12.9237 51.3714 12.9061 51.2304C12.8885 51.1775 12.8709 51.1423 12.8532 51.0365C12.8532 50.9484 12.818 50.9131 12.8003 50.8603L12.3949 52.288C11.9719 51.7416 12.06 48.1987 12.0072 47.1763C11.3021 47.5289 12.6417 46.5242 11.7428 47.5641L11.2845 47.8461C11.2668 47.8638 11.1963 47.8814 11.1787 47.8814C9.18692 48.8685 9.71572 49.6969 7.53004 51.1423C6.26093 51.9883 5.02708 52.9225 3.4407 52.9225L3.42307 50.9308C2.7709 51.3362 3.01767 53.2222 3.00004 54.8438C1.21977 54.7909 1.73093 54.8438 1.67806 52.8873C1.36078 53.1517 1.14926 53.3985 0.796733 53.6981Z" fill="#3B4721"/>
<path fill-rule="evenodd" clip-rule="evenodd" d="M17.1191 66.8141C17.2425 67.6778 17.7537 68.2418 18.3177 68.9645C18.8113 69.5814 19.1286 70.2689 20.0628 70.6566C21.2261 69.7753 21.3495 70.9387 21.7196 68.7177L23.0945 68.4533C23.5704 68.3652 24.6456 69.5285 25.809 70.1807C28.8584 71.8552 28.4706 70.8858 29.8278 71.0268C31.6433 71.2031 29.6515 71.1678 30.9912 71.6613C31.044 71.6437 31.1322 71.538 31.1498 71.5908L32.4013 70.9387C32.366 70.0573 31.1674 70.4275 32.7186 68.8235C33.2121 68.33 33.8466 67.6778 34.3931 67.9598C36.2438 68.9293 33.3355 67.7835 34.9042 68.3476C35.6798 67.6249 36.2438 67.854 36.473 66.5144C38.0946 66.3911 37.3191 66.0914 38.4648 66.2677C38.9583 66.3558 37.9536 66.5673 39.258 66.3558C39.8573 65.8446 39.822 65.5274 40.4389 64.9104C40.9854 64.364 41.4084 64.223 41.9196 63.7647L42.2721 65.1572L42.5365 63.5885C43.929 63.2183 43.5059 63.042 44.0876 62.6895C44.5635 62.4075 44.2991 62.2841 44.9513 62.5661C45.2333 62.6719 45.2686 62.9539 45.3215 63.2536C45.392 63.2007 45.4625 63.0068 45.5154 63.0597C45.7798 63.3417 45.7974 62.7953 45.9384 62.7248C46.6434 62.3194 45.7092 62.619 46.6434 62.4604C47.8068 61.5085 49.0054 56.1501 49.3227 53.8234C49.4284 52.431 48.6352 51.7612 47.9831 50.8975L47.3661 51.1619L46.7668 54.5461C46.7668 54.4932 46.7492 53.8763 46.7492 53.8234C46.6258 53.2594 46.6787 53.5414 46.5377 53.136L46.2909 52.6601C45.1628 53.0479 44.6869 53.9821 44.5635 53.7353C44.5459 53.6824 44.4401 53.7882 44.3873 53.8234C44.7574 54.6871 45.1276 55.2336 45.3215 56.2735C44.493 56.5379 45.3215 56.2735 44.8279 56.5203L43.2415 57.5602C41.426 59.1995 42.889 58.23 42.6246 58.847L38.9407 60.7506C37.8655 61.3323 37.1428 61.2089 36.8079 62.478C32.5599 62.5309 32.8772 64.2054 30.5681 64.9986C29.5987 65.3335 29.3695 65.3335 29.0875 66.4087L24.7338 66.5321L23.7643 67.9598C22.4952 67.4663 20.2919 65.0162 19.9041 64.223C19.8689 64.2759 19.8512 64.364 19.8336 64.3993C19.8336 64.4345 19.7984 64.5227 19.7807 64.5755L19.4458 65.2101C18.9523 65.9328 18.8113 65.5274 18.8994 67.0961C18.4235 66.4968 18.6174 66.5849 17.9123 66.2324C17.6127 66.7788 17.7184 67.149 17.9476 67.5896C17.6303 66.9903 17.6479 66.2324 17.1191 66.8141Z" fill="#3B4721"/>
<path fill-rule="evenodd" clip-rule="evenodd" d="M0.796374 53.6985C1.1489 53.3988 1.36042 53.152 1.6777 52.8876C1.73058 54.8442 1.21941 54.7913 2.99968 54.8442C3.01731 53.2225 2.77054 51.3365 3.42272 50.9311L3.44034 52.9229C5.02672 52.9229 6.26057 51.9887 7.52968 51.1426C9.71536 49.6973 9.18656 48.8688 11.1784 47.8817C11.196 47.8817 11.2665 47.8641 11.2841 47.8465L11.7424 47.5645C12.6413 46.5245 11.3017 47.5292 12.0068 47.1767C12.0597 48.199 11.9715 51.7419 12.3946 52.2883L12.8 50.8606L12.8705 40.5139C11.6719 39.756 8.1466 40.2672 6.57785 40.32H1.73058C1.58956 40.3377 1.18416 40.3905 1.06077 40.4082C0.390966 40.5492 0.761121 40.4963 0.56723 40.5844C-0.0144426 43.7572 0.0560632 50.6138 0.796374 53.6985Z" fill="#3B4721"/>
<path fill-rule="evenodd" clip-rule="evenodd" d="M20.0635 70.6564C20.4336 71.5377 21.8614 72.7363 22.778 73.459C23.6769 74.1641 25.1223 74.9396 25.8097 75.9267C30.516 75.9796 35.7863 73.741 38.6946 71.6611C41.2328 69.828 45.71 65.5624 46.6442 62.4601C45.71 62.6188 46.6442 62.3191 45.9391 62.7245C45.7981 62.795 45.7805 63.3415 45.5161 63.0594C45.4632 63.0066 45.3927 63.2004 45.3222 63.2533C45.2693 62.9537 45.2341 62.6717 44.952 62.5659C44.2998 62.2839 44.5642 62.4073 44.0883 62.6893C43.5067 63.0418 43.9297 63.2181 42.5372 63.5882L42.2728 65.157L41.9203 63.7645C41.4091 64.2228 40.9861 64.3638 40.4397 64.9102C39.8227 65.5271 39.858 65.8444 39.2587 66.3556C37.9543 66.5671 38.959 66.3556 38.4655 66.2674C37.3198 66.0912 38.0953 66.3908 36.4737 66.5142C36.2446 67.8538 35.6805 67.6247 34.905 68.3473C33.3362 67.7833 36.2446 68.929 34.3938 67.9596C33.8474 67.6775 33.2128 68.3297 32.7193 68.8233C31.1681 70.4273 32.3667 70.0571 32.402 70.9384L31.1505 71.5906C31.1329 71.5377 31.0448 71.6435 30.9919 71.6611C29.6523 71.1676 31.6441 71.2028 29.8285 71.0266C28.4713 70.8855 28.8591 71.855 25.8097 70.1805C24.6464 69.5283 23.5711 68.365 23.0952 68.4531L21.7204 68.7175C21.3502 70.9384 21.2268 69.7751 20.0635 70.6564Z" fill="#3B4721"/>
<path fill-rule="evenodd" clip-rule="evenodd" d="M13.3643 39.0518L13.7168 31.7016L14.3337 31.7368L15.356 34.0283C15.5676 33.8873 18.0529 33.1117 18.8108 33.1646C20.0976 33.2703 21.3138 32.8649 22.3185 32.3361C22.8649 32.5476 22.6358 32.7944 23.288 33.0588C24.3455 32.5829 25.3326 32.671 25.7733 31.6135H26.6194C26.7427 32.5829 26.496 32.2656 27.201 32.1422C28.0118 31.966 27.4302 32.0541 27.8179 31.7721L30.0565 30.3972C31.449 30.9084 28.8227 31.067 34.3574 31.1375C33.9696 30.8555 34.516 31.1552 33.8462 30.9613C32.9296 30.7145 33.2469 30.9436 32.5066 30.2915C32.3479 30.1328 32.4361 30.08 32.1364 29.9918C34.4279 29.8156 34.1635 30.0976 34.939 30.08C36.3844 30.0447 34.9567 29.9742 35.8556 29.8684C36.5607 29.7803 36.0143 30.0447 37.0895 29.9566C34.1282 28.2821 30.7968 27.0658 26.919 26.7309C23.6581 26.4489 16.6252 26.4137 13.3995 26.6957L13.3643 39.0518Z" fill="#3B4721"/>
<path fill-rule="evenodd" clip-rule="evenodd" d="M0.144531 26.6957C0.144531 26.1669 0.162158 25.7791 0.197411 25.2503L0.532313 23.7168C1.88955 23.7873 1.18449 23.188 1.44889 24.4748C1.66041 22.5535 1.76616 24.8449 2.43597 23.0647C2.43597 23.0647 3.10578 20.5265 3.26441 21.161C3.28204 21.1786 3.82846 21.4783 4.70978 21.2315C5.32671 21.0553 5.92601 20.6498 6.34904 20.4207C7.54764 19.7156 9.08114 19.8743 10.9495 19.8567C11.7956 19.5394 11.0906 20.0329 11.5136 18.852C11.5312 18.7991 11.7251 18.3232 11.7251 18.3055C12.0248 17.7767 11.9014 18.0235 12.1834 17.7415C13.2234 21.0729 13.3644 22.8355 13.3644 26.7133L13.3996 26.6957L13.3644 13L0.162158 13.0176L0.144531 26.6957Z" fill="#3B4721"/>
<path fill-rule="evenodd" clip-rule="evenodd" d="M5.62695 66.7255C8.62345 71.1497 16.8903 76.702 25.8092 75.9265C25.1218 74.9394 23.6764 74.1638 22.7775 73.4588C21.8609 72.7361 20.4332 71.5375 20.063 70.6562C19.1288 70.2684 18.8115 69.581 18.318 68.964C17.754 68.2414 17.2428 67.6773 17.1194 66.8136C16.1323 66.1262 16.3438 65.5974 15.6917 64.628C15.2334 64.2754 15.1629 64.1697 14.8103 63.9053C14.1582 64.1873 13.6999 64.3107 13.0653 64.628C12.5013 64.9276 12.2545 65.0862 11.3379 65.1039C11.0735 65.7384 11.1264 65.4388 11.1088 66.3377L9.04648 66.7079C9.02886 66.7079 8.99361 66.7079 8.97598 66.6902C8.3238 66.4435 9.38139 67.3072 8.76446 66.373C8.14754 66.373 8.18279 66.373 7.63637 66.4964L6.94894 66.6374C6.22625 66.5669 6.70217 66.0381 5.62695 66.7255Z" fill="#3B4721"/>
<path fill-rule="evenodd" clip-rule="evenodd" d="M32.7177 40.6729C34.2159 41.1135 38.4639 41.9244 39.4686 43.2816C41.5485 43.4226 46.7483 48.6576 47.9822 50.8962C48.6344 51.7599 49.4276 52.4297 49.3218 53.8222C49.8506 49.1159 48.4405 42.3121 46.0785 39.0513C45.444 39.1746 45.7436 39.016 44.8271 38.5225L44.1925 38.875C43.1526 39.4038 43.2583 38.9102 42.3241 39.439C42.2712 39.4567 42.2184 39.5095 42.1655 39.5448C41.6896 39.8444 42.659 39.8621 41.6896 39.8444C40.4028 39.8268 42.5533 39.4214 40.2618 39.0865C39.451 38.9807 38.6578 39.1923 38.2524 39.5448L39.5215 40.0736C39.8917 40.2146 40.1032 40.3204 40.3852 40.4614C39.1513 40.8668 39.2747 40.8844 38.0233 40.2675C37.9704 40.2322 37.9175 40.197 37.8646 40.1617C37.7941 40.1441 37.5826 40.056 37.5121 40.0207C36.6484 39.7563 32.5414 39.6858 31.6777 39.7387L32.1536 40.1088C32.2065 40.1441 32.277 40.2146 32.3123 40.2498C32.4709 40.3909 32.5591 40.4614 32.7177 40.6729Z" fill="#3B4721"/>
<path fill-rule="evenodd" clip-rule="evenodd" d="M0.144531 26.6935L13.3644 26.7111C13.3644 22.8333 13.2234 21.0706 12.1834 17.7393C11.9014 18.0213 12.0248 17.7745 11.7251 18.3033C11.7251 18.3209 11.5312 18.7968 11.5136 18.8497C11.0906 20.0307 11.7956 19.5371 10.9495 19.8544C9.08114 19.872 7.54764 19.7134 6.34904 20.4185C5.92601 20.6476 5.32671 21.053 4.70978 21.2293C3.82846 21.4761 3.28204 21.1764 3.26441 21.1588C3.10578 20.5242 2.43597 23.0624 2.43597 23.0624C1.76616 24.8427 1.66041 22.5513 1.44889 24.4725C1.18449 23.1858 1.88955 23.7851 0.532313 23.7146L0.197411 25.2481C0.162158 25.7769 0.144531 26.1647 0.144531 26.6935Z" fill="#3B4721"/>
<path fill-rule="evenodd" clip-rule="evenodd" d="M35.9791 49.7866L36.8428 51.1615C37.1953 50.7208 37.2835 50.6503 37.354 49.6808C37.3716 49.4869 37.3187 48.7643 37.3187 48.4999H37.5655C37.5655 49.6103 37.495 49.8042 37.8123 50.6679C38.676 49.9805 38.4468 51.6902 38.6054 49.2049C38.7112 47.7243 37.7594 48.6938 37.9709 44.957C36.0849 45.1685 37.4068 45.4505 36.4726 45.6973C35.9615 45.098 36.1201 44.957 35.5561 44.0228C35.3974 43.7407 35.3974 44.0051 35.2917 43.5821L37.4597 44.0228C38.7993 43.8113 37.7418 43.2648 39.4691 43.2825C38.4644 41.9252 34.2165 41.1144 32.7182 40.6738L25.791 39.9863C28.5936 40.2155 30.9908 41.6432 32.5243 43.1238C34.3398 44.8336 35.2917 46.6315 35.9791 49.7866Z" fill="#3B4721"/>
<path fill-rule="evenodd" clip-rule="evenodd" d="M0.849538 57.3299C1.23732 56.9421 1.16681 56.096 1.13156 55.532C1.0258 54.0866 0.303118 55.814 0.796659 53.6988C0.056348 50.6142 -0.0141578 43.7575 0.567515 40.5848C0.761406 40.4967 0.391251 40.5495 1.06106 40.4085C1.18444 40.3909 1.58985 40.338 1.73086 40.3204H6.57813C8.14689 40.2675 11.6722 39.7564 12.8708 40.5143L12.8003 50.861C12.8179 50.9139 12.8532 50.9491 12.8532 51.0372C12.8708 51.143 12.8884 51.1782 12.906 51.2311C12.9237 51.3721 12.9942 51.848 13.0118 51.8833C13.1881 52.6412 12.906 52.4297 13.4877 52.8704L13.3819 39.9502L0.0387215 39.9326C0.19736 45.4497 -0.490072 52.2358 0.849538 57.3299Z" fill="#3B4721"/>
<path d="M64.8775 68V21.92H82.9895C85.9122 21.92 88.3655 22.5173 90.3495 23.712C92.3335 24.9067 93.8268 26.4533 94.8295 28.352C95.8322 30.2293 96.3335 32.2133 96.3335 34.304C96.3335 36.8427 95.7042 39.0187 94.4455 40.832C93.2082 42.6453 91.5335 43.8827 89.4215 44.544L89.3575 42.976C92.3015 43.7013 94.5628 45.12 96.1415 47.232C97.7202 49.3227 98.5095 51.7653 98.5095 54.56C98.5095 57.2693 97.9655 59.6267 96.8775 61.632C95.8108 63.6373 94.2428 65.2053 92.1735 66.336C90.1255 67.4453 87.6402 68 84.7175 68H64.8775ZM71.6615 61.632H83.6935C85.2082 61.632 86.5628 61.344 87.7575 60.768C88.9735 60.192 89.9228 59.3707 90.6055 58.304C91.3095 57.216 91.6615 55.9253 91.6615 54.432C91.6615 53.0453 91.3522 51.7973 90.7335 50.688C90.1362 49.5573 89.2615 48.672 88.1095 48.032C86.9788 47.3707 85.6455 47.04 84.1095 47.04H71.6615V61.632ZM71.6615 40.736H82.8935C84.1308 40.736 85.2402 40.4907 86.2215 40C87.2242 39.488 88.0135 38.7627 88.5895 37.824C89.1868 36.864 89.4855 35.712 89.4855 34.368C89.4855 32.576 88.8882 31.104 87.6935 29.952C86.4988 28.8 84.8988 28.224 82.8935 28.224H71.6615V40.736ZM101.037 68V20.96H107.726V68H101.037ZM125.879 68.928C123.49 68.928 121.484 68.544 119.863 67.776C118.242 67.008 116.919 66.0053 115.895 64.768C114.892 63.5093 114.124 62.144 113.591 60.672C113.058 59.2 112.695 57.76 112.503 56.352C112.311 54.944 112.215 53.7067 112.215 52.64V33.44H118.999V50.432C118.999 51.776 119.106 53.1627 119.319 54.592C119.554 56 119.98 57.312 120.599 58.528C121.239 59.744 122.124 60.7253 123.255 61.472C124.407 62.2187 125.9 62.592 127.735 62.592C128.93 62.592 130.06 62.4 131.127 62.016C132.194 61.6107 133.122 60.9707 133.911 60.096C134.722 59.2213 135.351 58.0693 135.799 56.64C136.268 55.2107 136.503 53.472 136.503 51.424L140.663 52.992C140.663 56.128 140.076 58.9013 138.903 61.312C137.73 63.7013 136.044 65.568 133.847 66.912C131.65 68.256 128.994 68.928 125.879 68.928ZM137.303 68V58.016H136.503V33.44H143.255V68H137.303ZM160.774 68.928C158.385 68.928 156.379 68.544 154.758 67.776C153.137 67.008 151.814 66.0053 150.79 64.768C149.787 63.5093 149.019 62.144 148.486 60.672C147.953 59.2 147.59 57.76 147.398 56.352C147.206 54.944 147.11 53.7067 147.11 52.64V33.44H153.894V50.432C153.894 51.776 154.001 53.1627 154.214 54.592C154.449 56 154.875 57.312 155.494 58.528C156.134 59.744 157.019 60.7253 158.15 61.472C159.302 62.2187 160.795 62.592 162.63 62.592C163.825 62.592 164.955 62.4 166.022 62.016C167.089 61.6107 168.017 60.9707 168.806 60.096C169.617 59.2213 170.246 58.0693 170.694 56.64C171.163 55.2107 171.398 53.472 171.398 51.424L175.558 52.992C175.558 56.128 174.971 58.9013 173.798 61.312C172.625 63.7013 170.939 65.568 168.742 66.912C166.545 68.256 163.889 68.928 160.774 68.928ZM172.198 68V58.016H171.398V33.44H178.15V68H172.198ZM224.053 68L224.085 46.464C224.085 43.968 223.445 42.0267 222.165 40.64C220.885 39.232 219.2 38.528 217.109 38.528C215.829 38.528 214.656 38.8267 213.589 39.424C212.544 40 211.69 40.8747 211.029 42.048C210.389 43.2 210.069 44.6507 210.069 46.4L206.837 44.768C206.794 42.336 207.306 40.2027 208.373 38.368C209.461 36.5333 210.933 35.1147 212.789 34.112C214.645 33.088 216.725 32.576 219.029 32.576C222.762 32.576 225.653 33.696 227.701 35.936C229.749 38.176 230.773 41.152 230.773 44.864L230.741 68H224.053ZM182.613 68V33.44H188.565V43.424H189.333V68H182.613ZM203.349 68L203.381 46.592C203.381 44.0747 202.741 42.1013 201.461 40.672C200.202 39.2427 198.506 38.528 196.373 38.528C194.261 38.528 192.554 39.2533 191.253 40.704C189.973 42.1547 189.333 44.0533 189.333 46.4L186.133 44.352C186.133 42.0907 186.677 40.0747 187.765 38.304C188.853 36.5333 190.325 35.136 192.181 34.112C194.037 33.088 196.138 32.576 198.485 32.576C200.938 32.576 203.029 33.0987 204.757 34.144C206.485 35.168 207.797 36.608 208.693 38.464C209.61 40.32 210.069 42.4747 210.069 44.928L210.037 68H203.349Z" fill="#3B4721"/>
</svg>
